# xmcd
#
# Track frame offsets: 
#        150
#        17964
#        34239
#        56549
#        71590
#        95110
#        112324
#        126273
#        144242
#        156693
#        174271
#        194265
#
# Disc length: 2854 seconds
#
# Revision: 0
# Processed by: cddbd v1.5.2PL0 Copyright (c) Steve Scherf et al.
# Submitted via: ExactAudioCopy v0.99pb4
#
DISCID=b40b240c
DTITLE=Woodleg Odd - One Step Ahead
DYEAR=2009
DGENRE=Blues
TTITLE0=Forever And A Day
TTITLE1=I Will Get By
TTITLE2=Back To My Old Tricks Again
TTITLE3=Reason And Rhyme
TTITLE4=Long Distance Love
TTITLE5=Saints And Sins
TTITLE6=Find A Way To Get Rid Of You
TTITLE7=Been Down This Road Before
TTITLE8=Walk Of Shame
TTITLE9=At That Time
TTITLE10=One Step Behind
TTITLE11=A Thousand Times Before
EXTD=
EXTT0=
EXTT1=
EXTT2=
EXTT3=
EXTT4=
EXTT5=
EXTT6=
EXTT7=
EXTT8=
EXTT9=
EXTT10=
EXTT11=
PLAYORDER=
